<?xml version="1.0" encoding="UTF-8" standalone="no"?>
<svg
   width="144.98"
   height="160"
   viewBox="-7.65 -13.389 144.98 160"
   version="1.1"
   id="svg13"
   sodipodi:docname="org-timeblock-unicorn-no-frame-modus-operandi-colors.svg"
   inkscape:version="1.3 (0e150ed6c4, 2023-07-21)"
   xml:space="preserve"
   inkscape:export-filename="org-timeblock-unicorn-no-frame-modus-operandi-colors.png"
   inkscape:export-xdpi="384"
   inkscape:export-ydpi="384"
   xmlns:inkscape="http://www.inkscape.org/namespaces/inkscape"
   xmlns:sodipodi="http://sodipodi.sourceforge.net/DTD/sodipodi-0.dtd"
   xmlns="http://www.w3.org/2000/svg"
   xmlns:svg="http://www.w3.org/2000/svg"
   xmlns:rdf="http://www.w3.org/1999/02/22-rdf-syntax-ns#"
   xmlns:cc="http://creativecommons.org/ns#"
   xmlns:dc="http://purl.org/dc/elements/1.1/"><title
     id="title29">Org unicorn on background with timeblocks, modus opreandi colors</title><defs
     id="defs13"><linearGradient
       id="swatch23"
       inkscape:swatch="solid"><stop
         style="stop-color:#4d4d4d;stop-opacity:1;"
         offset="0"
         id="stop23" /></linearGradient></defs><sodipodi:namedview
     id="namedview13"
     pagecolor="#ffffff"
     bordercolor="#000000"
     borderopacity="0.25"
     inkscape:showpageshadow="2"
     inkscape:pageopacity="0.0"
     inkscape:pagecheckerboard="0"
     inkscape:deskcolor="#d1d1d1"
     showgrid="false"
     inkscape:zoom="4.8171649"
     inkscape:cx="43.905493"
     inkscape:cy="83.451575"
     inkscape:window-width="2560"
     inkscape:window-height="1348"
     inkscape:window-x="-12"
     inkscape:window-y="-12"
     inkscape:window-maximized="1"
     inkscape:current-layer="layer1"
     inkscape:export-bgcolor="#ffffffff" /><g
     inkscape:groupmode="layer"
     id="layer1"
     inkscape:label="MondrianLayer_1"
     style="display:inline"><rect
       style="display:inline;fill:#ffffff;fill-opacity:1;stroke:#00000f;stroke-width:1.11992;stroke-dasharray:none;stroke-opacity:0.988235"
       id="rect1"
       width="144.2384"
       height="159.61705"
       x="-7.4432507"
       y="-13.32904" /><rect
       style="fill:#f3d000;fill-opacity:1;stroke:#00000f;stroke-width:1.05462;stroke-dasharray:none;stroke-opacity:1"
       id="rect16"
       width="39.283863"
       height="87.513161"
       x="-6.9999151"
       y="-12.910889" /><rect
       style="fill:#2f3f83;fill-opacity:1;stroke:#00000f;stroke-width:1.03062;stroke-opacity:1"
       id="rect17"
       width="143.97575"
       height="20.079464"
       x="-7.0895205"
       y="126.36944" /><rect
       style="fill:#972500;fill-opacity:1;stroke:#00000f;stroke-width:1;stroke-opacity:1;stroke-dasharray:none"
       id="rect18"
       width="93.605858"
       height="41.707497"
       x="43.2561"
       y="36.582943" /><rect
       style="opacity:1;fill:#595959;fill-opacity:1;stroke:#00000f;stroke-width:0.933721;stroke-dasharray:none;stroke-opacity:1"
       id="rect22"
       width="37.122974"
       height="48.049385"
       x="99.796234"
       y="78.454819" /><rect
       style="opacity:1;fill:#f3d000;fill-opacity:1;stroke:#00000a;stroke-width:0.923713;stroke-dasharray:none;stroke-opacity:1"
       id="rect25"
       width="33.894352"
       height="26.664068"
       x="69.532478"
       y="-12.602544"
       transform="matrix(0.99999628,-0.00272714,2.8434203e-4,0.99999996,0,0)" /><rect
       style="opacity:1;fill:#000000;fill-opacity:1;stroke:#00000f;stroke-width:0.310906;stroke-dasharray:none;stroke-opacity:1"
       id="rect26"
       width="144.38283"
       height="0.68909407"
       x="-7.4959664"
       y="-13.260916" /><rect
       style="opacity:1;fill:#000000;fill-opacity:1;stroke:#00000f;stroke-width:0.59951;stroke-dasharray:none;stroke-opacity:1"
       id="rect27"
       width="0.50048888"
       height="159.35698"
       x="-7.3479772"
       y="-13.050281" /><rect
       style="opacity:1;fill:#000000;fill-opacity:1;stroke:#00000f;stroke-width:0.6147;stroke-dasharray:none;stroke-opacity:1"
       id="rect28"
       width="0.38529989"
       height="158.94324"
       x="136.69954"
       y="-13.126697" /><rect
       style="display:inline;fill:#000000;fill-opacity:1;stroke:#00000f;stroke-width:0.46256;stroke-dasharray:none;stroke-opacity:1"
       id="rect28-5"
       width="0.24011439"
       height="144.42171"
       x="146.34671"
       y="-137.43941"
       transform="matrix(-0.0016902,0.99999857,-0.99999968,-7.9505059e-4,0,0)"
       inkscape:transform-center-y="-9.3306652"
       inkscape:transform-center-x="-1.9191212e-06" /><rect
       style="display:inline;fill:#a60000;fill-opacity:1;stroke:#00000f;stroke-width:1.00661;stroke-dasharray:none;stroke-opacity:1"
       id="rect18-9"
       width="37.142384"
       height="11.557789"
       x="32.319038"
       y="-12.842208" /><rect
       style="display:inline;fill:#56692d;fill-opacity:1;stroke:#00000a;stroke-width:0.917923;stroke-dasharray:none;stroke-opacity:1"
       id="rect25-1"
       width="33.463554"
       height="26.669847"
       x="103.4206"
       y="10.216262"
       transform="matrix(0.99999618,-0.00276285,2.806672e-4,0.99999996,0,0)" /><rect
       style="display:inline;fill:#4a3a8a;fill-opacity:1;stroke:#00000a;stroke-width:1.09146;stroke-dasharray:none;stroke-opacity:1"
       id="rect25-1-9"
       width="106.71764"
       height="47.910736"
       x="-6.9293885"
       y="78.513611"
       transform="matrix(0.99999879,-0.00155634,4.9824694e-4,0.99999988,0,0)" /></g><path
     fill="#a04d32"
     stroke="#000000"
     stroke-width="3"
     d="m 133.399,46.067 c -0.205,-3.15 -2.842,-4.366 -5.993,-2.125 -7.22,-1.297 -14.305,-0.687 -17.8,-0.981 -7.662,-1.073 -14.041,-5.128 -14.041,-5.128 0.932,-1.239 0.486,-3.917 -5.498,-4.101 -1.646,-0.542 -3.336,-1.327 -4.933,-1.979 0.544,-1.145 -0.133,-2.836 -0.133,-2.836 2.435,-0.672 2.808,-3.842 1.848,-5.709 3.106,0.084 2.612,-4.718 2.183,-6.381 2.435,-0.923 2.77,-3.831 1.763,-6.129 2.938,-0.671 3.022,-4.114 2.77,-6.548 3.023,-0.168 2.604,-5.457 2.604,-6.549 2.604,-1.679 2.016,-3.946 2.425,-6.573 1.605,-3.25 -0.577,-4.173 -2.116,-0.71 -1.651,3.001 -3.77,4.311 -3.75,6.528 0.755,1.259 -5.625,3.106 -3.61,7.052 -1.428,1.763 -4.785,4.03 -3.592,6.733 -0.606,1.326 -4.888,4.433 -3.041,7.371 -4.03,2.687 -3.79,3.335 -2.938,5.793 -1.147,0.736 -2.318,1.862 -2.995,3.094 -1.32,-1.568 -2.603,-4.429 -2.584,-8.294 0,-3.275 -6.1,0.318 -6.1,6.784 0,0.556 -0.056,1.061 -0.134,1.542 -2.11,0.243 -4.751,0.707 -8.08,1.494 -0.106,0.073 -0.157,0.186 -0.182,0.316 a 8.704,8.704 0 0 1 -0.277,-1.553 c -0.582,-3.79 -4.934,-9.56 -7.057,-2.434 -1.096,2.611 -1.74,4.392 -2.115,5.789 v 0 c 0,0 -0.336,0.226 -0.957,0.61 -2.62,1.622 -3.562,6.686 -13.075,9.883 -3.211,1.079 -7.4,1.945 -12.96,2.395 -9.57,0.773 -27.887,17.314 -29.114,33.097 -0.283,3.964 0.31,13.737 3.596,22.31 l 0.005,0.02 c 0.015,0.042 0.032,0.081 0.048,0.122 0.052,0.134 0.103,0.267 0.156,0.398 0.28,0.718 0.579,1.405 0.895,2.062 1.885,4.028 4.46,7.59 7.934,9.882 a 25.252,25.252 0 0 0 4.372,2.762 c 5.907,9.749 18.442,22.252 42.075,14.859 36.255,-10.284 56.263,13.809 58.568,15.5 3.399,3.433 -8.786,-29.835 -34.587,-44.788 -15.253,-8.322 -5.678,-22.656 -4.585,-27.718 0,0 12.227,8.557 21.087,-4.52 8.004,2.062 13.367,-1.462 20.25,1.03 4.184,1.833 21.77,0.726 15.235,-9.104 4.11,-2.683 4.544,-1.815 6.6,-5.9 1.104,-4.952 -1.403,-6.012 -2.167,-7.366 z M 63.106,32.768 c -0.041,0.018 -0.086,0.04 -0.125,0.056 0.039,-0.034 0.075,-0.062 0.115,-0.102 z m -13.413,4.523 c -0.073,0.429 -0.143,0.829 -0.212,1.216 0.037,-0.832 0.085,-1.714 0.143,-2.646 0.024,0.435 0.05,0.904 0.069,1.43 z m 10.693,-6.333 c 0.746,1.124 1.662,2.179 1.662,2.179 0,0 -0.875,-0.79 -1.662,-2.179 z"
     id="path1"
     sodipodi:insensitive="true"
     style="display:inline" /><path
     fill="#77aa99"
     stroke="#000000"
     stroke-width="0.5"
     d="m 6.448,104.253 c 0,0 10.02,36.105 46.549,24.68 36.255,-10.284 56.263,13.809 58.568,15.5 3.399,3.433 -8.786,-29.835 -34.587,-44.788 C 61.725,91.323 71.3,76.989 72.393,71.927 c 0,0 12.227,8.557 21.087,-4.52 8.004,2.062 13.367,-1.462 20.25,1.03 4.184,1.833 21.77,0.726 15.235,-9.104 4.11,-2.683 4.544,-1.815 6.6,-5.9 1.105,-4.952 -1.402,-6.011 -2.166,-7.366 -0.205,-3.15 -2.842,-4.366 -5.993,-2.125 -7.22,-1.297 -14.305,-0.687 -17.8,-0.981 -7.662,-1.073 -14.041,-5.128 -14.041,-5.128 0.932,-1.239 0.486,-3.917 -5.498,-4.101 -3.287,-1.082 -6.752,-3.136 -9.288,-3.162 -2.567,0 -2.914,-2.537 -2.914,-2.537 -1.606,-0.87 -3.924,-4.252 -3.9,-9.438 0,-3.275 -6.098,0.318 -6.098,6.784 0,6.466 -5.818,7.758 -5.818,7.758 0,0 -2.55,-2.281 -2.855,-5.958 -0.582,-3.79 -4.934,-9.56 -7.057,-2.434 -3.226,7.646 -3.485,9.43 -4.115,13.154 -1.31,7.711 -0.345,8.012 -0.345,8.012 l -32.824,23.43 z"
     id="path2"
     sodipodi:insensitive="true"
     style="display:inline" /><path
     fill="#314b49"
     stroke="#314b49"
     stroke-width="0.75"
     stroke-linecap="round"
     stroke-linejoin="round"
     d="m 84.11,42.833 c 1.549,-0.562 0.897,-0.415 1.153,-0.581 -2.96,0.575 -9.635,0.614 -14.317,-1.133 0.392,0.23 2.568,0.962 2.845,1.128 0.218,0.715 0.1,1.438 2.932,2.709 2.559,0.793 5.845,0.461 6.835,-0.529 0.109,-1.684 0.126,-1.065 0.553,-1.594 z"
     id="path3"
     sodipodi:insensitive="true"
     style="display:inline" /><path
     fill="#314b49"
     stroke="#314b49"
     stroke-width="0.5"
     d="m 116.479,61.979 c -2.83,-2.085 -4.881,-0.264 -6.47,-0.413 0.99,-0.645 3.763,-2.062 8.246,-2.062 2.532,0 3.879,2.196 5.57,2.207 1.14,0.007 4.472,-1.71 5.14,-2.378 -0.97,0.838 0.454,1.755 -0.49,3.003 -0.281,0.359 -0.836,1.511 -2.662,2.051 -2.05,0.971 -5.411,1.762 -9.334,-2.408 z"
     id="path4"
     sodipodi:insensitive="true"
     style="display:inline" /><path
     fill="#314b49"
     d="m 54.932,24.033 c 0,0 -3.355,7.996 0.312,15.329 3.667,7.333 0.522,-6.829 4.688,-4.162 3.397,0.385 -2.387,-3.215 -2.033,-7.819 -0.176,-2.892 -1.77,-5.194 -2.967,-3.348 z m 64.404,26.384 c 0,1.121 -1.363,2.03 -3.045,2.03 3.573,-1.121 -0.201,-4.653 -3.045,-2.03 0,-1.121 1.363,-2.03 3.045,-2.03 1.682,0 3.045,0.909 3.045,2.03 z"
     id="path5"
     sodipodi:insensitive="true"
     style="display:inline" /><path
     fill="#314b49"
     d="m 114.169,47.833 c 3.772,-0.231 6.336,0.323 5.536,3.138 0.548,-1.126 1.292,-2.83 -1.046,-3.507 -1.746,-0.388 -3.3,-0.378 -4.49,0.369 z"
     id="path6"
     sodipodi:insensitive="true"
     style="display:inline" /><path
     fill="#a04d32"
     stroke="#000000"
     stroke-width="0.5"
     d="m 59.929,69.234 c 0,-3.521 -1.51,-7.166 -7.04,-14.583 -1.635,-2.192 -2.62,-4.336 -3.211,-6.275 -1.401,-3.295 -3.426,-8.019 -0.613,-17.233 0,0 0.62,-0.384 0,0 -2.62,1.622 -3.562,6.686 -13.075,9.883 -3.211,1.079 -7.4,1.945 -12.96,2.395 -9.568,0.773 -27.886,17.314 -29.113,33.097 -0.283,3.964 0.31,13.737 3.596,22.31 l 0.005,0.02 c 0.015,0.042 0.032,0.081 0.048,0.122 0.052,0.134 0.103,0.267 0.156,0.398 0.28,0.718 0.579,1.405 0.895,2.062 1.885,4.028 4.46,7.59 7.934,9.882 3.084,2.404 5.606,3.306 5.606,3.306 -2.588,-3.578 -3.77,-7.562 -2.263,-12.32 0.65,2.637 1.903,4.162 3.646,4.777 -0.615,-1.884 -0.827,-3.549 0,-4.651 2.567,6.734 5.353,9.031 8.17,10.686 -2.63,-4.914 -4.031,-10.005 -3.77,-15.337 2.569,6.028 6.596,9.945 10.56,13.954 -3.78,-5.966 -6.911,-12.104 -6.977,-19.046 1.693,2.778 3.935,4.932 6.6,6.601 -1.683,-2.709 -2.505,-5.51 -2.263,-8.423 4.424,4.945 9.36,6.607 14.332,8.046 -5.197,-3.625 -9.843,-7.537 -12.32,-12.572 2.972,1.464 5.948,1.693 8.926,1.383 -3.706,-1.872 -5.07,-5.252 -5.783,-9.052 5.177,5.279 10.587,8.827 16.09,11.692 -5.455,-5.26 -9.478,-10.65 -11.565,-16.218 2.1,1.18 4.157,1.736 6.16,1.509 -2.766,-3.124 -3.465,-6.182 -4.211,-9.241 2.637,3.916 4.959,6.022 7.103,7.103 -2.19,-4.482 -2.034,-8.432 -0.503,-12.068 2.524,1.675 4.902,4.295 6.915,9.303 0.73,-2.386 -0.447,-6.364 -1.886,-10.56 2.175,0.622 4.779,3.351 8.17,9.932 -0.33,-3.865 -2.138,-7.775 -4.147,-11.692 3.027,3.51 7.557,12.713 6.788,10.81 z"
     id="path7"
     sodipodi:insensitive="true"
     style="display:inline" /><path
     fill="#796958"
     stroke="#000000"
     stroke-width="0.5"
     d="m 76.27,30.176 c 0,0 -0.252,7.472 6.717,2.603 3.61,0.084 2.015,-3.862 2.015,-3.862 2.435,-0.672 2.808,-3.842 1.848,-5.709 3.106,0.084 2.612,-4.718 2.183,-6.381 2.435,-0.923 2.77,-3.831 1.763,-6.129 2.938,-0.671 3.022,-4.114 2.77,-6.548 3.023,-0.168 2.604,-5.457 2.604,-6.549 2.604,-1.679 2.016,-3.946 2.425,-6.573 1.605,-3.25 -0.577,-4.173 -2.116,-0.71 -1.651,3.001 -3.77,4.311 -3.75,6.528 0.755,1.259 -5.625,3.106 -3.61,7.052 -1.428,1.763 -4.785,4.03 -3.592,6.733 -0.606,1.326 -4.888,4.433 -3.041,7.371 -4.03,2.687 -3.79,3.335 -2.938,5.793 -2.155,1.38 -4.41,4.131 -3.278,6.381 z"
     id="path8"
     sodipodi:insensitive="true"
     style="display:inline" /><path
     fill="#a04d32"
     stroke="#000000"
     stroke-width="0.5"
     d="m 76.352,30.29 c -0.45,-0.45 -0.534,-0.896 -0.367,-1.718 0,0 0.369,-4.107 -16.333,-0.158 -1.072,0.74 2.396,4.722 2.396,4.722 0,0 0.418,0.215 1.047,-0.415 0.253,1.123 0.852,4.081 0.233,4.579 1.245,-0.771 1.868,-1.946 1.676,-4.125 2.122,0.461 3.742,1.64 4.692,3.779 0.304,-1.4 0.603,-2.799 -0.384,-4.126 2.182,0.285 3.88,1.496 5.362,3.124 0.22,-0.933 0.354,-1.883 0,-2.931 1.39,0.473 2.587,1.607 3.71,2.988 0,0 0.21,-3.862 -2.032,-5.719 z"
     id="path10"
     sodipodi:insensitive="true" /><path
     opacity="0.26"
     d="m 60.33,57.936 c 0,0 6.76,13.59 17.595,13.991 10.834,0.401 10.834,-2.73 10.834,-2.73 0,0 -15.527,3.048 -28.43,-11.261 z m 3.155,7.694 c 2.279,3.104 4.856,5.221 7.722,6.382 0,0 -7.365,11.108 -3.611,20.023 3.754,8.915 13.125,11.053 23.32,21.249 7.943,7.942 17.159,24.961 17.159,24.961 0,0 -17.834,-14.176 -29.42,-13.479 0,0 -2.687,-9.668 -10.585,-17.566 C 56.826,95.955 51.902,81.325 63.485,65.63 Z"
     id="path11"
     sodipodi:insensitive="true" /><path
     opacity="0.18"
     fill="#ffffff"
     d="m 44.717,38.245 c -3.874,2.501 -8.42,7.096 -24.415,8.083 -17.05,6.784 -27.433,26.685 -23.777,40.464 1.348,7.317 3.89,14.18 3.89,14.18 -0.885,-5.919 -1.381,-11.397 1.035,-13.599 1.435,2.384 2.969,2.468 4.507,2.479 -1.59,-2.404 -1.788,-4.808 0,-7.212 1.489,1.525 2.992,1.881 4.507,1.353 -2.128,-2.449 -1.867,-4.848 0,-7.211 1.388,5.022 4.462,7.453 7.662,9.689 -2.208,-4.333 -4.166,-8.672 -2.93,-13.07 1.323,0.729 2.595,0.644 3.83,0 -1.256,-1.576 -0.924,-3.153 0,-4.732 2.948,3.04 6.214,3.724 9.466,4.507 -2.661,-2.454 -5.543,-4.527 -6.761,-9.465 1.5,-1.811 3.269,-2.685 5.408,-2.253 -1.901,-1.167 -1.65,-2.543 0,-4.057 2.089,1.104 4.195,1.352 6.31,1.127 -2.807,-1.68 -8.424,-4.994 11.269,-20.283 z"
     id="path12"
     sodipodi:insensitive="true" /><path
     fill="#ffffff"
     d="m 94.094,-5.087 c 0,0 -0.735,1.324 -0.735,2.133 0,0.809 2.185,0.568 2.927,-0.227 -1.625,0.024 -2.965,0.289 -2.192,-1.906 z m -4.261,6.27 c 0,0 -0.812,1.068 -0.183,2.316 0.392,0.98 2.807,0.962 3.549,0.167 -1.625,0.024 -4.14,-0.287 -3.366,-2.483 z m -3.135,6.455 c 0,0 -0.998,1.346 -0.492,2.602 0,0.809 2.838,0.956 3.58,0.161 -1.625,0.022 -3.645,-0.489 -3.088,-2.763 z M 83.62,14.8 c 0,0 -1.402,1.542 -0.148,2.945 1.438,0.809 3.744,0.049 4.486,-0.746 -1.625,0.022 -4.894,0.076 -4.337,-2.199 z m -3.004,5.721 c 0,0 -1.575,1.414 -0.02,3.312 1.438,0.809 4.57,0.198 5.312,-0.597 -1.624,0.024 -5.99,-1.346 -5.292,-2.715 z m -3.147,6.741 c 0,0 -1.403,1.542 -0.15,2.945 1.439,0.809 6.037,-0.186 6.779,-0.981 -1.625,0.023 -7.185,0.311 -6.63,-1.964 z"
     id="path9"
     sodipodi:insensitive="true"
     style="display:inline" /><path
     opacity="0.27"
     fill="#ffffff"
     d="m 71.278,19.389 c 0.996,-0.963 1.146,-0.65 0.854,0.285 -0.982,2.36 0.353,4.647 0.797,6.206 l -3.871,0.114 c 0.108,-2.271 0.247,-4.794 2.22,-6.605 z"
     id="path13"
     sodipodi:insensitive="true" /><metadata
     id="metadata29"><rdf:RDF><cc:Work
         rdf:about=""><dc:title>Org-timeblock unicornt no frame modus opreandi colors</dc:title></cc:Work></rdf:RDF></metadata></svg>
